# xmcd
#
# Track frame offsets: 
#        150
#        59750
#        111444
#        161086
#        218250
#        258198
#
# Disc length: 4124 seconds
#
# Revision: 0
# Processed by: cddbd v1.5.2PL0 Copyright (c) Steve Scherf et al.
# Submitted via: ExactAudioCopy v0.99pb3
#
DISCID=51101a06
DTITLE=Ostâd Ahmad Ebâdi - Improvisations 2
DYEAR=2000
DGENRE=Persian Classical
TTITLE0=Râst-Panjgâh
TTITLE1=Abu'atâ
TTITLE2=Mâhur
TTITLE3=Dashti
TTITLE4=Homâyun
TTITLE5=Segâh
EXTD=
EXTT0=
EXTT1=
EXTT2=
EXTT3=
EXTT4=
EXTT5=
PLAYORDER=
